<?xml version="1.0" encoding="UTF-8" standalone="no"?><!DOCTYPE svg PUBLIC "-//W3C//DTD SVG 1.1//EN" "http://www.w3.org/Graphics/SVG/1.1/DTD/svg11.dtd"><svg width="100%" height="100%" viewBox="0 0 6667 6667" version="1.1" xmlns="http://www.w3.org/2000/svg" xmlns:xlink="http://www.w3.org/1999/xlink" xml:space="preserve" xmlns:serif="http://www.serif.com/" style="fill-rule:evenodd;clip-rule:evenodd;stroke-linejoin:round;stroke-miterlimit:2;"><g id="Background"><path d="M0,0l6666.66,0c15.735,22.363 -0,25.687 -0,341.797l0,6324.863c-22.362,15.736 -25.686,0 -341.79,0c-2108.29,0 -4216.58,0 -6324.87,0c-15.737,-22.361 -0,-25.686 0,-341.79l-0,-6324.87Z" style="fill:#191a2d;"/><path d="M3333.623,5543.908c3.779,90.452 50.092,272.205 -160.446,349.49c-50.544,18.554 -275.704,-6.775 -254.465,-304.304c12.034,-168.582 182.436,-930.911 -31.241,-1009.271c-100.616,-36.898 -103.715,-14.513 -103.4,-6.232c3.487,91.72 116.155,561.051 -195.385,504.922c-179.741,-32.384 -142.533,-228.598 -138.26,-251.13c52.265,-275.614 89.325,-359.052 39.201,-375.586c-137.24,-45.27 -130.783,-58.655 -195.415,-91.482c-24.148,-12.265 38.166,224.235 -148.494,280.412c-17.674,5.319 -140.691,20.48 -186.922,-87.78c-64.929,-152.045 27.125,-394.319 -4.877,-486.35c-14.663,-42.167 -170.027,-62.415 -309.657,-482.762c-27.49,-82.755 -190.871,-7.86 -219.15,-436.221c-12.383,-187.569 2.685,-188.67 -42.408,-370.746c-11.409,-46.067 -43.235,-174.574 35.915,-592.15c132.72,-700.197 858.861,-1216.653 1176.468,-1320.057c142.063,-46.251 136.103,-69.814 324.871,-86.276c163.426,-14.252 345.075,-88.555 651.159,-27.2c60.426,12.113 139.659,-50.011 683.753,162.675c153.81,60.124 489.465,317.239 588.917,439.218c64.734,79.397 295.026,420.073 382.927,700.343c26.393,84.154 182.106,822.622 -55.322,1269.607c-98.795,185.993 -118.343,189.196 -144.975,312.488c-107.186,496.199 -390.587,513.217 -478.295,658.472c-213.495,353.574 72.65,458.098 -32.518,826.641c-84.272,295.319 -348.36,126.596 -379.521,45.886c-96.27,-249.346 89.072,-555.561 51.647,-715.913c-6.64,-28.451 -151.624,86.939 -265.684,121.43c-374.045,113.108 -223.109,253.179 -196.555,529.045c28.065,291.56 -398.583,326.741 -338.239,-6.889c7.839,-43.338 87.74,-345.719 -26.902,-446.565c-55.625,-48.931 -137.836,155.697 -102.705,414.339c32.875,242.034 38.835,239.978 75.978,481.944Z" style="fill:#020103;"/><path d="M5240.133,2646.488c-10.362,273.103 11.07,446.409 -270.764,917.166c-157.042,262.314 -385.018,259.298 -470.259,546.802c-136.875,461.656 -94.85,470.059 -40.895,710.022c43.699,194.348 8.953,420.647 -138.652,398.33c-363.231,-54.919 69.194,-695.42 -112.957,-897.22c-207.952,-230.385 -355.485,33.986 -531.324,89.638c-245.56,77.719 -398.093,-18.81 -722.126,-177.663c-412.491,-202.218 -139.879,535.563 -230.286,729.843c-48.92,105.127 -243.832,67.923 -214.863,-103.676c27.827,-164.832 224.212,-803.943 -174.05,-818.232c-285.543,-10.245 28.708,509.385 -214.643,540.164c-163.683,20.703 -114.992,-239.625 -110.808,-261.994c15.92,-85.119 42.706,-508.965 -120.157,-648.126c-238.478,-203.771 -383.127,-139.218 -402.227,-549.72c-9.668,-207.779 -15.024,-206.396 -54.506,-410.666c-21.8,-112.784 31.056,-755.051 299.806,-1084.595c434.797,-533.151 673.346,-611.186 1007.102,-755.405c29.513,-12.753 29.533,-8.72 396.346,-66.499c229.931,-36.218 230.27,-0.516 566.332,10.851c43.833,1.483 134.119,4.536 525.997,154.526c65.3,24.993 470.682,254.19 649.247,532.76c316.394,493.588 343.048,688.545 363.686,1143.693Z" style="fill:#9655af;"/><path d="M3291.172,3131.955c-30.372,-5.103 -239.049,-40.167 -348.977,-162.529c-376.349,-418.915 -84.966,-909.254 245.115,-957.927c718.008,-105.876 923.936,652.833 533.144,986.254c-194.854,166.248 -394.292,134.149 -429.282,134.201Z" style="fill:#020102;"/><path d="M3264.55,3066.094c-111.894,-25.625 -258.332,-43.457 -400.044,-330.184c-53.955,-109.168 -36.421,-274.05 -28.543,-284.301c353.484,-459.974 867.577,-192.125 904.84,-177.803c101.431,38.983 218.579,445.247 -67.989,682.427c-182.004,150.637 -367.4,112.388 -408.265,109.86Z" style="fill:#19192d;"/><path d="M3664.369,5133.516c-29.769,207.242 -234.815,161.356 -220.71,6.699c0.736,-8.066 120.788,-470.615 -69.312,-557.709c-54.077,-24.775 -250.26,28.721 -166.105,570.184c64.83,417.123 132.788,649.331 -66.691,685.37c-20.438,3.692 -162.92,-27.633 -161.991,-196.8c1.558,-283.966 236.62,-1030.746 -105.785,-1130.648c-42.364,-12.36 -92.968,-10.671 -93.654,-34.377c-4.82,-166.643 -3.555,-260.192 145.225,-186.955c42.118,20.732 289.771,167.495 560.74,213.869c62.158,10.638 241.543,-11.268 368.73,-121.364c18.61,-16.109 198.927,-172.194 307.27,-15.73c8.067,11.651 0.344,14.348 -148.851,96.028c-192.229,105.239 -472.732,86.993 -381.064,481.982c21.831,94.066 24.232,92.817 32.196,189.451Z" style="fill:url(#_Linear1);"/><path d="M2265.823,4215.964c-0.951,-9.728 -10.521,-107.601 48.518,-112.134c222.695,-17.099 226.191,300.074 188.896,287.526c-254.45,-85.609 -232.802,-153.285 -237.414,-175.392Z" style="fill:#784830;"/><path d="M4886.528,3851.158c-125.031,205.342 -134.369,199.62 -298.196,308.208c-16.444,10.9 -59.135,64.01 -39.808,4.338c94.971,-293.224 187.914,-226.148 383.753,-448.613c45.399,-51.572 -40.731,125.737 -45.749,136.067Z" style="fill:#774730;"/><path d="M3447.497,2123.732c-49.45,-4.464 -172.261,-36.018 -421.989,82.957c-72.261,34.427 -149.156,107.116 -122.838,69.347c169.708,-243.552 398.446,-218.727 531.806,-204.13c151.903,16.626 264.726,121.811 221.139,105.65c-89.628,-33.232 -88.912,-32.375 -208.118,-53.824Z" style="fill:#734530;"/><path d="M3523.398,4026.745c-14.109,73.601 -48.14,58.648 -104.68,9.082c-31.518,-27.63 -223.7,-127.474 -140.327,-184.299c39.653,-27.026 225.116,105.783 245.007,175.217Z" style="fill:#ecc486;"/><path d="M1924.612,3064.231c21.22,-18.516 20.518,-17.246 39.844,-38.913c42.405,-47.542 90.35,-7.576 87.613,31.185c-2.261,32.02 -191.465,222.228 -244.739,175.089c-59.372,-52.535 84.706,-142.322 117.282,-167.361Z" style="fill:#ea86a8;"/><path d="M2276.213,2735.855c-16.306,-15.347 -66.341,-62.438 137.39,-243.873c34.652,-30.859 126.732,9.576 48.71,87.317c-122.263,121.822 -101.448,173.107 -186.1,156.556Z" style="fill:#ecc486;"/><path d="M4999.625,2770.371c-5.216,21.121 -35.987,117.743 -261.619,-74.241c-47.047,-40.031 2.769,-119.086 63.007,-74.996c47.42,34.707 42.333,49.91 170.028,102.722c27.686,11.45 23.127,16.822 28.584,46.515Z" style="fill:#e3914c;"/><path d="M2966.431,3299.951c-101.411,43.32 -214.909,135.444 -207.092,23.907c2.624,-37.445 275.562,-208.743 288.38,-97.737c1.639,14.19 -8.294,30.601 -9.717,32.953c-8.213,13.571 -10.673,10.384 -71.572,40.878Z" style="fill:#ebc386;"/><path d="M4436.13,3705.769c6.925,-4.718 74.116,-50.493 103.494,-16.137c44.221,51.715 -23.388,82.693 -29.993,85.719c-62.357,28.572 -173.333,109.301 -201.392,85.94c-81.7,-68.022 46.21,-109.37 127.89,-155.522Z" style="fill:#56a5d2;"/><path d="M4663.788,2002.54c-24.377,-60.706 38.369,-82.155 125.394,-208.338c23.54,-34.131 151.735,-19.678 41.726,107.337c-103.829,119.879 -119.837,156.824 -167.12,101.001Z" style="fill:#ea85a9;"/><path d="M1974.478,3434.221c2.645,-7.146 28.228,-76.258 90.328,-30.212c104.437,77.436 225.815,131.062 138.279,191.605c-20.005,13.836 -213.458,-101.557 -228.607,-161.393Z" style="fill:#56a5d2;"/><path d="M4032.247,1211.221c130.82,-68.54 119.226,49.763 92.82,63.116c-216.833,109.646 -241.239,79.707 -254.497,63.443c-54.551,-66.919 129.775,-112.578 161.677,-126.56Z" style="fill:#56a5d2;"/><path d="M2575.483,1168.952c10.174,-13.894 41.586,-70.915 84.005,-70.949c130.645,-0.105 -84.616,255.469 -123.693,250.139c-100.985,-13.775 0.359,-120.753 39.688,-179.19Z" style="fill:#56a5d2;"/><path d="M3001.76,1390.734c3.606,72.215 -155.581,212.14 -173.013,213.055c-34.937,1.835 -93.873,-41.185 16.63,-145.26c29.17,-27.473 100.118,-151.588 156.383,-67.795Z" style="fill:#ea85a9;"/><path d="M4782.256,3213.494c-7.198,3.206 -99.891,44.496 -90.252,-39.455c1.368,-11.918 194.831,-198.127 244.64,-135.762c39.179,49.054 -43.158,96.416 -154.387,175.217Z" style="fill:#ea85a9;"/><path d="M3744.944,3370.002c15.916,22.535 77.179,94.973 14.079,120.885c-66.43,27.28 -81.991,-69.759 -155.307,-160.988c-37.723,-46.94 9.558,-167.9 80.753,-53.691c30.07,48.236 30.856,46.149 60.475,93.794Z" style="fill:#56a5d2;"/><path d="M3330.545,3348.313c80.687,57.252 -8.662,89.952 -94.356,220.875c-35.199,53.777 -144.11,22.568 -59.45,-87.359c29.939,-38.875 58.282,-56.899 97.357,-117.426c12.374,-19.167 51.764,-16.417 56.448,-16.09Z" style="fill:#ea85a9;"/><path d="M2620.635,3636.293c-31.603,29.345 -167.525,178.838 -193.401,71.056c-4.255,-17.722 -8.561,-35.659 156.257,-165.792c5.028,-3.97 53.93,-42.581 80.063,-1.379c33.318,52.529 2.164,53.181 -42.919,96.115Z" style="fill:#55a5d2;"/><path d="M2424.761,3323.575c-2,6.464 -24.211,78.233 -76.106,36.889c-19.44,-15.488 -79.486,-228.58 -57.125,-255.591c86.543,-104.542 120.519,157.903 133.231,218.702Z" style="fill:#e3914c;"/><path d="M4401.459,1377.111c4.782,-49.676 54.326,-76.906 101.354,-7.192c110.247,163.43 108.93,167.006 103.127,182.759c-45.426,123.309 -198.737,-135.537 -204.481,-175.566Z" style="fill:#e2914c;"/><path d="M4358.201,3421.594c-98.009,-102.846 -134.497,-80.793 -129.829,-130.583c13.011,-138.788 319.09,117.961 219.799,173.106c-51.44,28.569 -51.404,1.333 -89.969,-42.524Z" style="fill:#ecc487;"/><path d="M4135.897,2595.025c-6.735,-18.05 -15.7,-35.214 -22.435,-53.264c-6.122,-16.407 0.568,-61.96 50.161,-59.867c42.184,1.78 151.267,228.631 101.365,265.551c-64.589,47.788 -83.072,-51.219 -129.091,-152.42Z" style="fill:#ea85a9;"/><path d="M4123.648,2965.798c13.494,53.832 -128.669,223.697 -162.062,223.854c-93.352,0.437 -26.933,-89.829 -22.252,-96.19c42.29,-57.474 130.304,-217.487 184.314,-127.663Z" style="fill:#ecc486;"/><path d="M5065.78,2438.014c-30.426,147.338 -236.465,-130.39 -209.681,-180.994c14.689,-27.753 63.582,-40.85 84.028,-2.447c54.707,102.757 110.118,110.482 125.653,183.441Z" style="fill:#55a5d2;"/><path d="M4620.809,2360.976c-20.485,34.75 -80.24,173.911 -144.988,116.334c-37.914,-33.715 19.608,-80.568 79.326,-194.713c56.293,-107.599 127.758,-33.796 100.273,17.783c-10.939,20.529 -23.671,40.068 -34.611,60.596Z" style="fill:#e3914b;"/><path d="M3076.111,1867.801c-96.77,-24.044 -14.914,-113.339 60.52,-215.91c72.221,-98.202 113.861,0.887 99.311,23.251c-120.961,185.918 -140.099,189.237 -159.831,192.659Z" style="fill:#55a5d2;"/><path d="M1878.193,2574.266c31.396,3.944 33.194,2.024 59.483,32.482c9.41,10.902 114.504,132.662 116.266,137.438c3.13,8.484 9.89,157.399 -112.164,14.083c-70.338,-82.591 -158.517,-143.663 -63.586,-184.003Z" style="fill:#55a5d2;"/><path d="M4558.187,2854.458c-58.647,140.03 -90.604,241.591 -154.378,209.423c-55.072,-27.779 18.458,-121.695 64.274,-242.362c10.244,-26.979 54.196,-23.286 59.26,-22.861c21.685,1.822 29.99,50.771 30.844,55.799Z" style="fill:#56a5d2;"/><path d="M2581.052,2978.976c-66.878,-64.982 -86.835,-58.094 -81.024,-105.257c9.722,-78.894 93.888,-9.891 100.088,-4.808c13.435,11.015 163.557,134.09 129.89,174.036c-50.294,59.673 -82.438,8.219 -148.954,-63.97Z" style="fill:#55a6d2;"/><path d="M2976.683,3792.57c44.398,180.857 -69.256,104.497 -73.408,95.781c-0.277,-0.581 -61.266,-198.727 -38.917,-223.872c25.799,-29.026 74.727,-18.761 89.364,23.119c8.195,23.448 17.89,83.774 22.96,104.972Z" style="fill:#e3914c;"/><path d="M1997.768,1598.08c2.445,-17.762 7.213,-52.4 143.195,-172.41c13.811,-12.189 62.565,-11.62 73.28,29.971c8.251,32.027 -177.747,270.06 -216.476,142.44Z" style="fill:#ea85a8;"/><path d="M3590.536,1241.794c-85.444,-13.337 -38.065,-102.15 -32.308,-222.905c3.609,-75.697 111.249,-51.821 97.451,26.038c-26.344,148.649 1.623,172.593 -65.143,196.867Z" style="fill:#ebc387;"/><path d="M2524.463,2201.606c-26.833,-20.226 -63.056,-43.461 -45.171,-81.487c38.806,-82.506 236.861,91.267 231.965,129.195c-14.093,109.17 -173.116,-37.52 -186.794,-47.708Z" style="fill:#ea86a8;"/><path d="M2067.042,2372.981c-53.293,9.95 -115.99,-46.524 1.328,-107.493c94.422,-49.071 193.506,-98.406 183.519,-9.307c-4.844,43.21 -114.823,83.824 -184.847,116.8Z" style="fill:#56a5d2;"/><path d="M4236.497,1629.518c0.614,0.698 78.789,62.566 47.943,110.139c-42.465,65.493 -82.236,-29.047 -190.481,-105.484c-50.939,-35.971 -15.208,-140.344 89.516,-56.065c4.603,3.704 3.928,3.808 53.022,51.41Z" style="fill:#ecc486;"/><path d="M4057.168,2099.575c26.175,-86.543 67.056,-48.911 189.718,53.575c100.243,83.756 -14.084,127.638 -43.118,94.953c-83.333,-93.812 -133.807,-86.595 -146.6,-148.528Z" style="fill:#55a6d2;"/><path d="M3376.301,1434.864c-32.916,-34.879 -50.934,-40.454 -19.495,-76.876c59.315,-68.716 155.594,95.004 163.391,102.551c83.012,80.358 -15.767,130.45 -47.813,99.989c-45.139,-42.906 -30.596,-53.529 -96.083,-125.664Z" style="fill:#55a5d2;"/><path d="M1840.81,1973.406c-39.607,-35.731 -52.489,-40.525 -25.955,-87.131c31.483,-55.3 224.926,104.116 217.926,148.004c-17.185,107.748 -161.826,-38.442 -191.97,-60.874Z" style="fill:#55a5d2;"/><path d="M3075.839,1143.875c-17.636,-7.633 -17.466,-7.735 -19.047,-8.244c-8.825,-2.839 -125.949,-40.511 -60.537,-98.808c29.482,-26.275 251.094,46.806 241.256,99.068c-14.952,79.428 -127.206,21.083 -161.673,7.983Z" style="fill:#e3914c;"/><path d="M1731.366,3643.145c217.368,86.807 216.918,325.742 212.031,325.531c-68.999,-2.975 -199.433,-297.12 -212.031,-325.531Z" style="fill:#784931;"/><path d="M3923.569,3931.962c-9.24,0.979 -134.322,5.792 -9.576,-115.746c4.526,-4.41 82.187,-106.442 130.577,-74.047c72.466,48.514 -106.459,179.173 -121.001,189.793Z" style="fill:#ea85a9;"/><path d="M2366.57,1890.795c-6.162,-2.119 -53.946,-18.551 -39.49,-71.245c44.916,-163.722 57.307,-166.745 71.663,-170.247c108.446,-26.455 49.321,230.676 -32.173,241.492Z" style="fill:#ecc486;"/><path d="M3866.703,1735.809c-9.147,26.933 -26.485,149.58 -100.23,122.427c-57.576,-21.199 19.423,-242.287 77.99,-234.81c73.582,9.393 26.311,101.324 22.241,112.383Z" style="fill:#ea85a9;"/><path d="M1748.673,2366.749c-57.188,165.402 -108.619,54.594 -109.728,45.166c-4.486,-38.145 79.812,-291.835 140.286,-168.407c7.647,15.608 11.458,17.577 -30.558,123.241Z" style="fill:#e2914c;"/><path d="M4135.26,3600.884c-91.565,47.817 -106.958,-101.185 -17.58,-81.495c63.215,13.927 21.313,75.967 17.58,81.495Z" style="fill:#e2816e;"/><path d="M3524.448,3701.256c1.625,-10.18 -1.167,-30.356 26.74,-46.11c13.482,-7.61 37.188,-4.888 45.069,1.537c71.051,57.917 -40.567,143.367 -71.809,44.573Z" style="fill:#57a5d2;"/><path d="M2704.891,1891.406c-2.52,-6.165 -29.948,-73.27 32.944,-76.463c90.107,-4.574 47.394,144.689 -32.944,76.463Z" style="fill:#e2816c;"/><path d="M1688.695,2798.322c92.101,52.576 -57.725,133.746 -66.721,57.035c-6.489,-55.339 11.485,-55.029 66.721,-57.035Z" style="fill:#e3816d;"/><path d="M4491.668,1989.412c-55.948,106.729 -129.993,-35.601 -68.475,-53.697c65.252,-19.194 68.168,46.742 68.475,53.697Z" style="fill:#55a5d2;"/><path d="M4667.811,3537.737c2.265,-29.349 -7.507,-34.439 17.371,-50.288c27.45,-17.487 54.281,-4.883 54.761,-4.577c53.919,34.341 -23.389,148.219 -72.133,54.865Z" style="fill:#56a5d3;"/></g><defs><linearGradient id="_Linear1" x1="0" y1="0" x2="1" y2="0" gradientUnits="userSpaceOnUse" gradientTransform="matrix(-8.026015,161.233365,-161.233365,-8.026015,3112.586632,4552.971167)"><stop offset="0" style="stop-color:#774730;stop-opacity:1"/><stop offset="1" style="stop-color:#9655ae;stop-opacity:1"/></linearGradient></defs></svg>